<?xml version="1.0" standalone="no"?>
<!DOCTYPE svg PUBLIC "-//W3C//DTD SVG 20010904//EN"
 "http://www.w3.org/TR/2001/REC-SVG-20010904/DTD/svg10.dtd">
<svg version="1.0" xmlns="http://www.w3.org/2000/svg"
 width="259.000000pt" height="194.000000pt" viewBox="0 0 259.000000 194.000000"
 preserveAspectRatio="xMidYMid meet">

<g transform="translate(0.000000,194.000000) scale(0.100000,-0.100000)"
fill="#000000" stroke="none">
<path d="M0 970 l0 -970 1295 0 1295 0 0 970 0 970 -1295 0 -1295 0 0 -970z
m1739 568 c-16 -40 -38 -82 -49 -93 -11 -12 -23 -35 -26 -53 -5 -25 -1 -38 20
-63 39 -46 66 -104 66 -141 0 -78 -30 -128 -102 -174 -28 -18 -38 -31 -38 -50
0 -43 17 -64 53 -64 127 -1 247 -172 247 -352 0 -128 -78 -186 -206 -152 -32
8 -63 18 -68 22 -16 12 -110 17 -306 17 -206 0 -320 -8 -387 -29 -26 -8 -99
-30 -161 -49 -93 -29 -112 -32 -108 -18 3 9 31 120 61 246 83 343 68 305 121
305 40 0 45 2 39 18 -48 125 -64 262 -40 354 12 50 14 72 6 87 -11 20 0 32 64
67 12 7 21 24 23 43 3 28 6 31 37 31 31 0 37 5 60 50 14 28 27 50 28 50 2 0
19 -11 38 -25 l34 -26 11 27 11 27 32 -56 c49 -86 53 -87 110 -34 94 88 164
106 271 69 l55 -19 60 28 c33 15 63 28 67 29 4 0 -7 -33 -23 -72z"/>
<path d="M1412 1551 c-23 -11 -67 -43 -96 -71 -48 -46 -56 -50 -74 -39 -11 7
-30 30 -42 51 -23 42 -34 47 -44 21 -6 -14 -12 -11 -40 16 l-34 33 -23 -44
c-20 -35 -30 -44 -57 -46 -28 -3 -32 -7 -32 -33 0 -25 -7 -32 -45 -50 -47 -22
-52 -28 -35 -45 7 -7 5 -25 -6 -55 -32 -88 -10 -290 42 -390 l15 -29 -55 0
-55 0 -10 -37 c-6 -21 -35 -136 -65 -256 -45 -183 -51 -218 -38 -214 192 55
244 73 280 92 35 20 42 21 42 8 0 -13 10 -15 63 -10 34 4 113 10 175 13 67 4
112 11 112 17 0 6 6 4 13 -5 8 -11 37 -17 95 -21 79 -6 82 -6 82 15 l0 21 23
-21 c63 -59 190 -81 240 -42 53 42 60 136 18 254 -44 125 -114 190 -206 190
-29 1 -51 4 -49 8 3 4 -2 20 -10 36 -23 44 -5 99 37 117 18 7 40 22 49 32 24
26 48 87 48 121 0 33 -61 138 -78 135 -8 -2 -12 13 -12 43 l0 45 -32 -24 c-83
-61 -77 -44 8 23 47 37 71 64 85 97 10 24 19 48 19 53 0 5 -38 -9 -84 -31 -46
-21 -90 -39 -97 -39 -8 0 -28 -9 -46 -20 -25 -15 -31 -16 -26 -4 3 8 30 29 60
46 62 35 58 45 -24 54 -35 3 -60 -1 -91 -15z m19 -52 c-23 -16 -51 -46 -63
-65 -11 -18 -24 -31 -30 -28 -6 4 -8 -2 -3 -15 7 -23 -4 -26 -40 -12 -18 7
-14 13 36 62 50 49 108 88 133 89 5 0 -10 -14 -33 -31z m171 -39 c-18 -11 -37
-20 -42 -20 -6 0 -27 -15 -47 -34 -39 -34 -83 -55 -83 -38 0 22 71 68 149 97
52 20 61 18 23 -5z m-449 -23 c18 -18 45 -42 62 -54 34 -24 32 -29 -22 -48
-21 -8 -30 -14 -20 -15 11 0 34 7 53 16 26 12 37 14 48 5 7 -6 31 -12 52 -13
22 -1 52 -9 69 -19 29 -18 69 -17 90 2 15 14 45 10 45 -6 0 -8 -5 -15 -12 -15
-6 0 -9 -3 -5 -6 3 -3 23 6 44 20 34 24 38 25 45 9 3 -10 7 -26 7 -36 1 -15
-4 -17 -21 -11 -52 16 -50 13 12 -18 47 -24 65 -38 65 -53 0 -15 -7 -20 -26
-20 -15 -1 -34 -9 -43 -18 -21 -20 -60 -31 -82 -23 -13 5 -10 11 15 32 18 15
31 35 30 47 l0 22 -9 -21 c-15 -37 -108 -55 -179 -35 l-24 7 29 19 c16 11 40
22 53 25 13 3 26 11 29 19 3 9 0 11 -7 6 -7 -4 -20 0 -29 8 -28 24 -79 47
-106 47 -26 0 -43 -21 -50 -62 -2 -17 -10 -23 -29 -23 -14 0 -29 -3 -33 -7
-12 -12 -24 -9 -24 6 0 11 -8 11 -45 -3 -50 -18 -80 -9 -80 25 0 10 -7 19 -15
19 -32 1 -65 38 -64 73 1 26 12 44 53 83 28 27 61 49 72 49 11 0 35 -15 52
-33z m62 -28 c16 -19 13 -18 -17 5 -21 16 -38 30 -38 33 0 8 36 -16 55 -38z
m120 -60 c15 -15 -18 -10 -45 6 l-25 15 30 -6 c17 -4 34 -11 40 -15z m99 -14
c12 -18 13 -25 4 -25 -21 1 -51 28 -43 39 10 17 21 13 39 -14z m-480 -50 c4
-14 4 -30 1 -35 -3 -5 -1 -11 5 -15 5 -3 10 -30 10 -59 0 -45 -3 -54 -17 -52
-13 1 -18 -6 -18 -23 0 -14 -6 -26 -13 -29 -20 -6 -21 119 -1 196 13 48 24 53
33 17z m404 -13 c2 -7 -3 -12 -12 -12 -9 0 -16 7 -16 16 0 17 22 14 28 -4z
m331 -87 l-1 -30 -8 34 c-5 19 -18 42 -31 51 -16 13 -18 19 -8 22 19 7 49 -41
48 -77z m-189 -95 c0 -5 -5 -10 -11 -10 -5 0 -7 5 -4 10 3 6 8 10 11 10 2 0 4
-4 4 -10z m100 6 c0 -3 -4 -8 -10 -11 -5 -3 -10 -1 -10 4 0 6 5 11 10 11 6 0
10 -2 10 -4z m-50 -28 c0 -16 -3 -19 -11 -11 -6 6 -8 16 -5 22 11 17 16 13 16
-11z m-222 -40 c24 4 65 -24 57 -38 -3 -4 2 -11 11 -14 10 -4 14 -14 11 -25
-3 -14 -1 -18 9 -14 8 3 14 0 14 -5 0 -28 106 -109 135 -103 6 0 2 -5 -8 -13
-11 -8 -26 -12 -35 -9 -27 10 -110 72 -131 99 -10 13 -26 24 -35 24 -48 0
-166 86 -166 121 0 10 53 -25 104 -70 32 -29 27 -14 -15 40 -32 40 -26 64 6
27 13 -15 28 -22 43 -20z m377 -212 c89 -38 170 -262 119 -334 -23 -34 -94
-30 -161 8 -71 41 -104 98 -111 191 l-5 69 40 40 c44 43 65 48 118 26z m-674
-26 c12 -16 26 -27 31 -24 12 8 10 -118 -3 -157 -16 -48 -55 -96 -91 -115 -28
-15 -190 -65 -194 -61 -2 2 83 353 91 375 3 8 27 12 74 12 66 0 72 -2 92 -30z
m175 -57 c-3 -49 -9 -118 -12 -154 l-6 -67 -46 -6 c-25 -3 -46 -5 -47 -4 -1 2
7 74 18 161 l21 157 39 0 40 0 -7 -87z m177 -1 l48 -87 -7 78 -7 79 41 -27
c43 -29 45 -33 57 -160 4 -33 8 -71 11 -85 5 -25 4 -26 -43 -20 -46 5 -47 6
-95 85 l-48 80 0 -76 0 -76 -42 -6 c-24 -3 -44 -4 -46 -2 -2 2 0 71 4 154 l7
151 36 0 c35 0 37 -3 84 -88z"/>
<path d="M1140 1356 c0 -9 7 -16 16 -16 17 0 14 22 -4 28 -7 2 -12 -3 -12 -12z"/>
<path d="M1128 1313 c7 -3 16 -2 19 1 4 3 -2 6 -13 5 -11 0 -14 -3 -6 -6z"/>
<path d="M1620 1215 c7 -8 17 -15 22 -15 6 0 5 7 -2 15 -7 8 -17 15 -22 15 -6
0 -5 -7 2 -15z"/>
<path d="M1330 975 c0 -8 5 -15 10 -15 6 0 10 7 10 15 0 8 -4 15 -10 15 -5 0
-10 -7 -10 -15z"/>
<path d="M1582 739 c2 -6 8 -10 13 -10 5 0 11 4 13 10 2 6 -4 11 -13 11 -9 0
-15 -5 -13 -11z"/>
<path d="M1640 720 c-16 -31 5 -122 34 -149 33 -31 70 -25 74 12 5 41 -25 135
-48 147 -29 15 -48 12 -60 -10z"/>
<path d="M1740 710 c0 -5 5 -10 10 -10 6 0 10 5 10 10 0 6 -4 10 -10 10 -5 0
-10 -4 -10 -10z"/>
<path d="M1566 643 c21 -91 97 -162 182 -171 46 -4 52 -2 67 22 13 20 16 39
12 76 -6 46 -36 122 -37 92 0 -8 -7 -11 -18 -8 -17 6 -18 1 -14 -48 4 -47 2
-56 -16 -65 -43 -23 -93 18 -113 92 -8 32 -14 37 -40 37 -27 0 -29 -2 -23 -27z"/>
<path d="M903 640 c-21 -96 -19 -102 30 -79 28 13 44 43 53 99 7 46 -7 70 -41
70 -19 0 -24 -10 -42 -90z"/>
<path d="M1020 685 c0 -8 -4 -15 -9 -15 -5 0 -14 -19 -19 -43 -6 -24 -20 -51
-31 -61 -20 -18 -91 -39 -91 -27 0 3 6 31 13 61 7 30 11 63 9 73 -4 21 -22 23
-22 2 0 -8 -7 -15 -15 -15 -8 0 -18 -16 -24 -37 -33 -125 -42 -166 -38 -169 2
-2 42 7 88 20 69 20 90 31 120 64 55 58 80 162 39 162 -11 0 -20 -7 -20 -15z"/>
<path d="M1147 704 c-4 -4 -2 -13 4 -21 9 -10 8 -13 -4 -13 -18 0 -23 -15 -33
-92 l-6 -58 34 0 35 0 6 72 c3 40 3 75 -1 78 -4 3 -7 11 -7 19 0 16 -18 25
-28 15z"/>
<path d="M1280 710 c0 -5 5 -10 10 -10 6 0 10 5 10 10 0 6 -4 10 -10 10 -5 0
-10 -4 -10 -10z"/>
<path d="M1455 700 c-3 -5 -3 -14 0 -20 3 -5 1 -10 -4 -10 -6 0 -11 -9 -11
-20 0 -11 -5 -20 -11 -20 -6 0 -13 9 -16 20 -4 13 -14 20 -30 20 l-25 0 28
-47 c15 -27 35 -60 43 -75 13 -22 23 -28 50 -28 l34 0 -7 71 c-10 101 -30 143
-51 109z"/>
<path d="M1266 624 c-12 -89 -10 -94 29 -94 l35 0 0 70 0 70 -29 0 c-26 0 -29
-3 -35 -46z"/>
</g>
</svg>
